<?xml version="1.0" encoding="UTF-8"?>
<svg xmlns="http://www.w3.org/2000/svg" viewBox="0 0 1200 700">
  <g stroke="black" stroke-width="10" fill="none" stroke-linecap="round">
    <line x1="210" y1="330" x2="390" y2="220"/>
    <line x1="210" y1="330" x2="380" y2="540"/>
    <line x1="390" y1="220" x2="380" y2="540"/>
    <line x1="390" y1="220" x2="610" y2="120"/>
    <line x1="390" y1="220" x2="700" y2="340"/>
    <line x1="380" y1="540" x2="700" y2="340"/>
    <line x1="380" y1="540" x2="620" y2="610"/>
    <line x1="620" y1="610" x2="930" y2="540"/>
    <line x1="700" y1="340" x2="930" y2="540"/>
    <line x1="700" y1="340" x2="930" y2="230"/>
    <line x1="610" y1="120" x2="700" y2="340"/>
    <line x1="610" y1="120" x2="930" y2="230"/>
    <line x1="930" y1="230" x2="1030" y2="140"/>
    <line x1="930" y1="230" x2="980" y2="430"/>
    <line x1="930" y1="540" x2="980" y2="430"/>
  </g>

  <g fill="black">
    <circle cx="210" cy="330" r="38"/>
    <circle cx="390" cy="220" r="60"/>
    <circle cx="380" cy="540" r="65"/>
    <circle cx="610" cy="120" r="42"/>
    <circle cx="700" cy="340" r="70"/>
    <circle cx="620" cy="610" r="42"/>
    <circle cx="930" cy="540" r="52"/>
    <circle cx="930" cy="230" r="50"/>
    <circle cx="1030" cy="140" r="30"/>
    <circle cx="980" cy="430" r="28"/>
  </g>
</svg>
